<svg version="1" xmlns="http://www.w3.org/2000/svg" width="861.333" height="861.333" viewBox="0 0 646.000000 646.000000"><path d="M366.7 12.7c-.3.2-5.6 1.3-9.2 1.8-2.2.3-6.5 1.2-10.5 2-4.5.9-8.5 1.7-10.5 1.9-1.1.2-3.3.6-5 1-3.9.8-7.3 1.5-11 2.1-1.6.3-4.1.8-5.5 1-4 .8-7.3 1.5-10 2-1.4.3-3.6.7-5 1-1.4.3-3.8.7-5.5 1-1.6.2-4.1.7-5.5 1-4.7.9-7.5 1.5-11 2.1-1.9.4-4.4.9-5.5 1.1-1.1.2-3.1.6-4.5.8-1.4.2-3.6.7-5 1-1.4.3-4 .8-5.9 1.1-1.8.3-4.3.8-5.5 1-1.1.2-3.2.6-4.6.9-1.4.3-3.6.7-5 1-1.4.3-4.1.8-6 1.1-1.9.3-6 1.2-9 2-6.3 1.7-8.9 2.4-11 2.9-.8.2-1.7.4-2 .5l-1.5.5c-.5.1-1.2.3-1.5.4-.3.2-1.2.4-2 .6-.8.2-2.6.7-4 1-1.4.3-3.5.8-4.7 1.1-1.2.2-3.4.9-4.8 1.4-1.4.5-2.5.8-2.5.5 0-.2-1.9.2-4.1 1.1-2.3.8-5.1 1.6-6.3 1.9-1.2.2-3.2.7-4.6 1-1.4.3-3.2.8-4 1-.8.2-1.7.4-2 .5-.3.1-.8.2-1.2.1-.4 0-2 .4-3.5 1s-3.6 1.2-4.7 1.5c-1 .2-2 .5-2.2.6-1 .9-31.7 31.6-58 58l-30.1 30.3L61.5 177c-6 17.3-11.3 32.6-11.8 34-.6 1.4-1.1 2.9-1.3 3.5-.1.5-2.5 7.5-5.3 15.5-4.2 12.2-8.2 26.7-10.6 38.9-.3 1.4-3.9 16.5-7.9 33.6-6 25.5-7.1 31.6-6.4 34.7.4 2.1 1.1 5.4 1.4 7.4.3 2 .8 4.6 1 5.8.2 1.1.7 3.7 1 5.6.3 1.9.7 4.2.9 5 .2.8.7 3 1 4.7.3 1.8.8 4.8 1.1 6.5.3 1.8.7 4.2.9 5.3.1 1.1.6 3.6.9 5.5.4 1.9.9 4.6 1.1 6 .3 1.4.7 3.6 1 5 .2 1.3.7 4.2 1.1 6.4.3 2.2.7 4.3.9 4.6.1.3.6 2.7.9 5.5.4 2.7.9 5.7 1.1 6.5.4 1.5 1.4 6.7 2 10.5.1 1.1.6 3.6.9 5.5.4 1.9.9 4.8 1.2 6.5.2 1.6.7 4.3 1.1 6 .4 1.6.7 3.4.8 4 .1.5.5 3.3.9 6.2l.8 5.2L89 510.1c26.9 27 60.2 60.7 74.2 74.9 22.9 23.2 25.8 25.8 29.3 26.4 7.2 1.1 11 1.7 15 2.1 2.2.2 4 .4 4 .5 0 .1 1.4.3 3 .4 3.7.4 43.1 5.6 46.5 6.1 1.4.2 5 .6 8 .9 3 .3 6.4.8 7.5 1 1.1.2 4.7.7 8 1.1 3.3.4 6.9.9 8 1 1.1.2 4.5.6 7.5 1 3 .3 6.2.8 7 1 .8.2 4.2.7 7.5 1 3.3.3 7.4.8 9 1 31.6 4.6 38.8 5.2 42 3.1 1.3-.9 3.1-1.6 4-1.6.8 0 1.5-.4 1.5-1 0-.5.3-.9.8-.8.4 0 2.4-.6 4.4-1.6 2.1-.9 4-1.6 4.3-1.6.3.1 2.2-.8 4.3-1.9 7.1-3.7 15.7-7.6 16.5-7.3.4.1.7-.3.7-.8s.3-.9.8-.8c.7.2 3.5-1 14.2-6 3-1.5 5.7-2.7 6-2.7.3 0 2.3-.9 4.5-1.9 7.4-3.5 16-7.4 21-9.6 2.8-1.2 7-3.1 9.5-4.3 2.5-1.2 4.8-2.1 5.3-1.9.4.1.7-.3.7-.8s.3-.9.8-.8c1.1.4 10.2-3.6 10.2-4.5 0-.4.7-.7 1.5-.7s3-.9 5-2c1.9-1.1 3.7-2 4-2 .3 0 2.6-1 5.2-2.2 2.7-1.2 5-2.2 5.3-2.3.3-.1 2.3-1 4.5-2s4.3-1.7 4.8-1.7c.4.1.7-.3.7-.8s.3-.9.8-.8c.7.2 5.2-1.7 14.7-6.3 3.5-1.7 5.9-4.9 20-27.2 8.7-13.9 18.7-29.5 22-34.7 3.4-5.2 9-14 12.4-19.5 6.7-10.6 8.1-12.8 15.5-24.2 2.5-4 4.6-7.7 4.6-8.3 0-.5.5-1 1-1 .6 0 1.4-.8 1.7-1.7.4-1 3.1-5.6 6.1-10.3 8.1-12.7 8.3-13 8.7-14.8.1-.9.6-6.6 1-12.5.4-6 .8-12.8 1-15 .2-2.3.6-8.3 1-13.2.3-5 .8-11.5 1-14.5 1-11.3 1.5-17.7 1.9-25 .3-4.1.7-10.4 1-14 .3-3.6.8-10.1 1.1-14.5 1.1-15.9 1.5-21.1 2-27 2.3-26.6 2.5-40.7.8-41.2-.7-.3-1.3-.9-1.3-1.4 0-.5-1.2-2.8-2.7-5.2-1.5-2.3-2.7-4.5-2.8-4.9 0-.4-.6-1.3-1.2-2-.7-.6-1.3-1.6-1.3-2 0-.5-1.2-2.7-2.7-5.1-1.5-2.3-3.3-5.1-3.9-6.2-.6-1.1-2.1-3.6-3.2-5.5-1.2-1.9-2.5-4.2-2.9-5-.3-.8-.9-1.7-1.2-2-.6-.5-3.6-5.8-5.5-9.7-.6-1.3-1.4-2.3-1.8-2.3-.5 0-.8-.6-.8-1.4 0-.8-.6-2.1-1.3-2.8-1.2-1.2-2.8-4-6.1-10.5-.6-1.3-1.4-2.3-1.8-2.3-.5 0-.8-.6-.8-1.4 0-.8-.6-2.1-1.2-2.8-.7-.7-2.4-3.3-3.7-5.8-1.3-2.5-3-5.2-3.6-6-.7-.8-1.6-2.5-1.9-3.8-.4-1.2-1.2-2.2-1.8-2.2-.6 0-.9-.3-.5-.6.3-.4-.6-2.5-2.1-4.8-4.9-7.5-5.3-8.1-5.8-9.9-.4-.9-1.1-1.7-1.6-1.7s-.7-.4-.3-.9c.3-.5 0-1.3-.5-1.6-.6-.4-1.5-1.7-2.1-2.8-.9-2.3-3-5.8-3.9-6.7-.4-.4-2.4-3.9-5.4-9.5-.6-1.1-1.3-2.2-1.6-2.5-.3-.3-1.1-1.6-1.8-3s-2.1-3.9-3.2-5.5c-1.1-1.7-2.5-4.2-3.1-5.8-.6-1.5-1.5-2.7-1.9-2.7-.5 0-1.2-1-1.6-2.2-.6-2.2-3.2-5.3-4.3-5.3-.8-.1-4.1-1.7-51.1-24-22.8-10.8-44.2-21-47.5-22.5-3.3-1.5-17.9-8.5-32.5-15.4-19.7-9.4-27.3-12.6-29.8-12.4-1.8.1-3.4.3-3.5.5z"/></svg>